<?xml version="1.0" encoding="UTF-8"?>
<svg width="565px" height="172px" viewBox="0 0 565 172" version="1.1" xmlns="http://www.w3.org/2000/svg" xmlns:xlink="http://www.w3.org/1999/xlink">
    <!-- Generator: Sketch 43.2 (39069) - http://www.bohemiancoding.com/sketch -->
    <title>flickr</title>
    <desc>Created with Sketch.</desc>
    <defs></defs>
    <g id="Page-1" stroke="none" stroke-width="1" fill="none" fill-rule="evenodd">
        <g id="flickr" fill-rule="nonzero" fill="#FFFFFF">
            <path d="M22.6224401,81.4395577 L0,81.4395577 L0,53.5875117 L23.2618583,53.5875117 L23.2618583,46.5165571 C23.2618583,12.2549479 38.8408103,0.3180429 69.5713369,0.3180429 C77.89476,0.3180429 84.2966326,1.64412154 89.2043321,2.52963884 L86.8576014,29.9378275 C83.6572144,28.8325789 80.4557288,28.1689902 74.6943731,28.1689902 C64.8778754,28.1689902 61.035873,35.2421421 61.035873,46.5165571 L61.035873,53.5886103 L88.3517745,53.5886103 L88.3517745,81.4406563 L61.035873,81.4406563 L61.035873,168.747608 L22.6224401,168.747608 L22.6224401,81.4395577 Z" id="path2407"></path>
            <rect id="rect2409" x="108.409953" y="2.97129883" width="38.413434" height="165.775222"></rect>
            <rect id="rect2411" x="179.687501" y="5.6234561" width="38.4145315" height="29.1770249"></rect>
            <rect id="rect2413" x="179.687501" y="53.5875117" width="38.4145315" height="115.157899"></rect>
            <path d="M333.556569,86.5208449 C326.514179,82.1031463 319.47179,80.1123804 310.29471,80.1123804 C293.648963,80.1123804 280.844119,92.0481868 280.844119,111.942662 C280.844119,130.289131 295.783653,142.22274 312.4294,142.22274 C321.180201,142.22274 329.931002,140.23527 336.331776,136.697595 L337.185432,166.316281 C327.580975,169.634224 316.058263,171.401963 305.814388,171.401963 C269.106071,171.401963 241.150751,149.298089 241.150751,111.280172 C241.150751,73.0403272 269.106071,50.9375517 305.814388,50.9375517 C317.339297,50.9375517 327.580975,52.927219 336.331776,57.3471149 L333.556569,86.5208449 Z" id="path2415"></path>
            <polygon id="polygon2417" points="353.19286 2.97129883 391.605194 2.97129883 391.605194 101.996523 392.032572 101.996523 424.043033 53.5875117 466.08423 53.5875117 427.457658 106.414222 469.285716 168.74651 422.762 168.74651 392.032572 111.720734 391.605194 111.720734 391.605194 168.74651 353.19286 168.74651"></polygon>
            <path d="M562.97037,85.4155963 C558.702089,84.0917149 554.432709,84.0917149 549.953486,84.0917149 C532.027803,84.0917149 521.995969,97.5733313 521.995969,120.119964 L521.995969,168.74651 L483.583634,168.74651 L483.583634,53.5875117 L518.581344,53.5875117 L518.581344,74.8069672 L519.008721,74.8069672 C525.622634,60.2179048 535.227091,50.9353544 551.873938,50.9353544 C556.352062,50.9353544 561.047721,51.5978444 564.893019,52.2603344 L562.97037,85.4155963 Z" id="path2419"></path>
        </g>
    </g>
</svg>